<svg width="15" height="15" viewBox="0 0 15 15" fill="none" xmlns="http://www.w3.org/2000/svg">
<g clip-path="url(#clip0_0:390)">
<path d="M13.9308 0.498535H1.62195C1.03232 0.498535 0.555542 0.96403 0.555542 1.53955V13.8991C0.555542 14.4747 1.03232 14.943 1.62195 14.943H13.9308C14.5204 14.943 15 14.4747 15 13.902V1.53955C15 0.96403 14.5204 0.498535 13.9308 0.498535ZM4.84092 12.8073H2.69682V5.91238H4.84092V12.8073ZM3.76887 4.97293C3.0805 4.97293 2.52473 4.41716 2.52473 3.73161C2.52473 3.04606 3.0805 2.49029 3.76887 2.49029C4.45441 2.49029 5.01019 3.04606 5.01019 3.73161C5.01019 4.41433 4.45441 4.97293 3.76887 4.97293ZM12.8644 12.8073H10.7231V9.45578C10.7231 8.65739 10.709 7.62766 9.60871 7.62766C8.49434 7.62766 8.32507 8.4994 8.32507 9.39936V12.8073H6.18662V5.91238H8.24044V6.85466H8.26865C8.55359 6.31299 9.25324 5.74029 10.2943 5.74029C12.4637 5.74029 12.8644 7.16781 12.8644 9.02414V12.8073Z" fill="white"/>
</g>
<defs>
<clipPath id="clip0_0:390">
<rect width="14.4444" height="14.4444" fill="white" transform="translate(0.555542 0.498535)"/>
</clipPath>
</defs>
</svg>
